<mxfile host="65bd71144e">
    <diagram id="BX3PEN_gZMmWgHI0mpiY" name="Page-1">
        <mxGraphModel dx="539" dy="424" grid="1" gridSize="10" guides="1" tooltips="1" connect="1" arrows="1" fold="1" page="1" pageScale="1" pageWidth="827" pageHeight="1169" background="#ffffff" math="0" shadow="0">
            <root>
                <mxCell id="0"/>
                <mxCell id="1" parent="0"/>
                <mxCell id="144" value="" style="shape=table;startSize=0;container=1;collapsible=0;childLayout=tableLayout;fontColor=#000000;fillColor=#FFFFFF;strokeColor=#000000;" vertex="1" parent="1">
                    <mxGeometry x="250" y="50" width="206" height="810" as="geometry"/>
                </mxCell>
                <mxCell id="145" value="" style="shape=partialRectangle;collapsible=0;dropTarget=0;pointerEvents=0;fillColor=none;top=0;left=0;bottom=0;right=0;points=[[0,0.5],[1,0.5]];portConstraint=eastwest;fontColor=#000000;" vertex="1" parent="144">
                    <mxGeometry width="206" height="45" as="geometry"/>
                </mxCell>
                <mxCell id="146" value="アドレス" style="shape=partialRectangle;html=1;whiteSpace=wrap;connectable=0;overflow=hidden;fillColor=#fad7ac;top=0;left=0;bottom=0;right=0;pointerEvents=1;strokeColor=#b46504;fontColor=#000000;opacity=70;" vertex="1" parent="145">
                    <mxGeometry width="56" height="45" as="geometry">
                        <mxRectangle width="56" height="45" as="alternateBounds"/>
                    </mxGeometry>
                </mxCell>
                <mxCell id="147" value="シンボル1" style="shape=partialRectangle;html=1;whiteSpace=wrap;connectable=0;overflow=hidden;fillColor=#fad7ac;top=0;left=0;bottom=0;right=0;pointerEvents=1;strokeColor=#b46504;fontColor=#000000;opacity=70;" vertex="1" parent="145">
                    <mxGeometry x="56" width="81" height="45" as="geometry">
                        <mxRectangle width="81" height="45" as="alternateBounds"/>
                    </mxGeometry>
                </mxCell>
                <mxCell id="148" value="シンボル2" style="shape=partialRectangle;html=1;whiteSpace=wrap;connectable=0;overflow=hidden;fillColor=#fad7ac;top=0;left=0;bottom=0;right=0;pointerEvents=1;strokeColor=#b46504;fontColor=#000000;opacity=70;" vertex="1" parent="145">
                    <mxGeometry x="137" width="69" height="45" as="geometry">
                        <mxRectangle width="69" height="45" as="alternateBounds"/>
                    </mxGeometry>
                </mxCell>
                <mxCell id="149" value="" style="shape=partialRectangle;collapsible=0;dropTarget=0;pointerEvents=0;fillColor=none;top=0;left=0;bottom=0;right=0;points=[[0,0.5],[1,0.5]];portConstraint=eastwest;fontColor=#000000;" vertex="1" parent="144">
                    <mxGeometry y="45" width="206" height="45" as="geometry"/>
                </mxCell>
                <mxCell id="150" value="0" style="shape=partialRectangle;html=1;whiteSpace=wrap;connectable=0;overflow=hidden;fillColor=none;top=0;left=0;bottom=0;right=0;pointerEvents=1;fontColor=#000000;" vertex="1" parent="149">
                    <mxGeometry width="56" height="45" as="geometry">
                        <mxRectangle width="56" height="45" as="alternateBounds"/>
                    </mxGeometry>
                </mxCell>
                <mxCell id="151" value="R0" style="shape=partialRectangle;html=1;whiteSpace=wrap;connectable=0;overflow=hidden;fillColor=none;top=0;left=0;bottom=0;right=0;pointerEvents=1;fontColor=#000000;" vertex="1" parent="149">
                    <mxGeometry x="56" width="81" height="45" as="geometry">
                        <mxRectangle width="81" height="45" as="alternateBounds"/>
                    </mxGeometry>
                </mxCell>
                <mxCell id="152" value="SP" style="shape=partialRectangle;html=1;whiteSpace=wrap;connectable=0;overflow=hidden;fillColor=none;top=0;left=0;bottom=0;right=0;pointerEvents=1;fontColor=#000000;" vertex="1" parent="149">
                    <mxGeometry x="137" width="69" height="45" as="geometry">
                        <mxRectangle width="69" height="45" as="alternateBounds"/>
                    </mxGeometry>
                </mxCell>
                <mxCell id="153" value="" style="shape=partialRectangle;collapsible=0;dropTarget=0;pointerEvents=0;fillColor=none;top=0;left=0;bottom=0;right=0;points=[[0,0.5],[1,0.5]];portConstraint=eastwest;fontColor=#000000;" vertex="1" parent="144">
                    <mxGeometry y="90" width="206" height="45" as="geometry"/>
                </mxCell>
                <mxCell id="154" value="1" style="shape=partialRectangle;html=1;whiteSpace=wrap;connectable=0;overflow=hidden;fillColor=none;top=0;left=0;bottom=0;right=0;pointerEvents=1;fontColor=#000000;" vertex="1" parent="153">
                    <mxGeometry width="56" height="45" as="geometry">
                        <mxRectangle width="56" height="45" as="alternateBounds"/>
                    </mxGeometry>
                </mxCell>
                <mxCell id="155" value="R1" style="shape=partialRectangle;html=1;whiteSpace=wrap;connectable=0;overflow=hidden;fillColor=none;top=0;left=0;bottom=0;right=0;pointerEvents=1;fontColor=#000000;" vertex="1" parent="153">
                    <mxGeometry x="56" width="81" height="45" as="geometry">
                        <mxRectangle width="81" height="45" as="alternateBounds"/>
                    </mxGeometry>
                </mxCell>
                <mxCell id="156" value="LCL" style="shape=partialRectangle;html=1;whiteSpace=wrap;connectable=0;overflow=hidden;fillColor=none;top=0;left=0;bottom=0;right=0;pointerEvents=1;fontColor=#000000;" vertex="1" parent="153">
                    <mxGeometry x="137" width="69" height="45" as="geometry">
                        <mxRectangle width="69" height="45" as="alternateBounds"/>
                    </mxGeometry>
                </mxCell>
                <mxCell id="157" value="" style="shape=partialRectangle;collapsible=0;dropTarget=0;pointerEvents=0;fillColor=none;top=0;left=0;bottom=0;right=0;points=[[0,0.5],[1,0.5]];portConstraint=eastwest;fontColor=#000000;" vertex="1" parent="144">
                    <mxGeometry y="135" width="206" height="45" as="geometry"/>
                </mxCell>
                <mxCell id="158" value="2" style="shape=partialRectangle;html=1;whiteSpace=wrap;connectable=0;overflow=hidden;fillColor=none;top=0;left=0;bottom=0;right=0;pointerEvents=1;fontColor=#000000;" vertex="1" parent="157">
                    <mxGeometry width="56" height="45" as="geometry">
                        <mxRectangle width="56" height="45" as="alternateBounds"/>
                    </mxGeometry>
                </mxCell>
                <mxCell id="159" value="R2" style="shape=partialRectangle;html=1;whiteSpace=wrap;connectable=0;overflow=hidden;fillColor=none;top=0;left=0;bottom=0;right=0;pointerEvents=1;fontColor=#000000;" vertex="1" parent="157">
                    <mxGeometry x="56" width="81" height="45" as="geometry">
                        <mxRectangle width="81" height="45" as="alternateBounds"/>
                    </mxGeometry>
                </mxCell>
                <mxCell id="160" value="ARG" style="shape=partialRectangle;html=1;whiteSpace=wrap;connectable=0;overflow=hidden;fillColor=none;top=0;left=0;bottom=0;right=0;pointerEvents=1;fontColor=#000000;" vertex="1" parent="157">
                    <mxGeometry x="137" width="69" height="45" as="geometry">
                        <mxRectangle width="69" height="45" as="alternateBounds"/>
                    </mxGeometry>
                </mxCell>
                <mxCell id="161" style="shape=partialRectangle;collapsible=0;dropTarget=0;pointerEvents=0;fillColor=none;top=0;left=0;bottom=0;right=0;points=[[0,0.5],[1,0.5]];portConstraint=eastwest;fontColor=#000000;" vertex="1" parent="144">
                    <mxGeometry y="180" width="206" height="45" as="geometry"/>
                </mxCell>
                <mxCell id="162" value="3" style="shape=partialRectangle;html=1;whiteSpace=wrap;connectable=0;overflow=hidden;fillColor=none;top=0;left=0;bottom=0;right=0;pointerEvents=1;fontColor=#000000;" vertex="1" parent="161">
                    <mxGeometry width="56" height="45" as="geometry">
                        <mxRectangle width="56" height="45" as="alternateBounds"/>
                    </mxGeometry>
                </mxCell>
                <mxCell id="163" value="R3" style="shape=partialRectangle;html=1;whiteSpace=wrap;connectable=0;overflow=hidden;fillColor=none;top=0;left=0;bottom=0;right=0;pointerEvents=1;fontColor=#000000;" vertex="1" parent="161">
                    <mxGeometry x="56" width="81" height="45" as="geometry">
                        <mxRectangle width="81" height="45" as="alternateBounds"/>
                    </mxGeometry>
                </mxCell>
                <mxCell id="164" value="THIS" style="shape=partialRectangle;html=1;whiteSpace=wrap;connectable=0;overflow=hidden;fillColor=none;top=0;left=0;bottom=0;right=0;pointerEvents=1;fontColor=#000000;" vertex="1" parent="161">
                    <mxGeometry x="137" width="69" height="45" as="geometry">
                        <mxRectangle width="69" height="45" as="alternateBounds"/>
                    </mxGeometry>
                </mxCell>
                <mxCell id="165" style="shape=partialRectangle;collapsible=0;dropTarget=0;pointerEvents=0;fillColor=none;top=0;left=0;bottom=0;right=0;points=[[0,0.5],[1,0.5]];portConstraint=eastwest;fontColor=#000000;" vertex="1" parent="144">
                    <mxGeometry y="225" width="206" height="45" as="geometry"/>
                </mxCell>
                <mxCell id="166" value="4" style="shape=partialRectangle;html=1;whiteSpace=wrap;connectable=0;overflow=hidden;fillColor=none;top=0;left=0;bottom=0;right=0;pointerEvents=1;fontColor=#000000;" vertex="1" parent="165">
                    <mxGeometry width="56" height="45" as="geometry">
                        <mxRectangle width="56" height="45" as="alternateBounds"/>
                    </mxGeometry>
                </mxCell>
                <mxCell id="167" value="R4" style="shape=partialRectangle;html=1;whiteSpace=wrap;connectable=0;overflow=hidden;fillColor=none;top=0;left=0;bottom=0;right=0;pointerEvents=1;fontColor=#000000;" vertex="1" parent="165">
                    <mxGeometry x="56" width="81" height="45" as="geometry">
                        <mxRectangle width="81" height="45" as="alternateBounds"/>
                    </mxGeometry>
                </mxCell>
                <mxCell id="168" style="shape=partialRectangle;html=1;whiteSpace=wrap;connectable=0;overflow=hidden;fillColor=none;top=0;left=0;bottom=0;right=0;pointerEvents=1;fontColor=#000000;" vertex="1" parent="165">
                    <mxGeometry x="137" width="69" height="45" as="geometry">
                        <mxRectangle width="69" height="45" as="alternateBounds"/>
                    </mxGeometry>
                </mxCell>
                <mxCell id="169" style="shape=partialRectangle;collapsible=0;dropTarget=0;pointerEvents=0;fillColor=none;top=0;left=0;bottom=0;right=0;points=[[0,0.5],[1,0.5]];portConstraint=eastwest;fontColor=#000000;" vertex="1" parent="144">
                    <mxGeometry y="270" width="206" height="45" as="geometry"/>
                </mxCell>
                <mxCell id="170" value="・" style="shape=partialRectangle;html=1;whiteSpace=wrap;connectable=0;overflow=hidden;fillColor=none;top=0;left=0;bottom=0;right=0;pointerEvents=1;fontColor=#000000;" vertex="1" parent="169">
                    <mxGeometry width="56" height="45" as="geometry">
                        <mxRectangle width="56" height="45" as="alternateBounds"/>
                    </mxGeometry>
                </mxCell>
                <mxCell id="171" value="・" style="shape=partialRectangle;html=1;whiteSpace=wrap;connectable=0;overflow=hidden;fillColor=none;top=0;left=0;bottom=0;right=0;pointerEvents=1;fontColor=#000000;" vertex="1" parent="169">
                    <mxGeometry x="56" width="81" height="45" as="geometry">
                        <mxRectangle width="81" height="45" as="alternateBounds"/>
                    </mxGeometry>
                </mxCell>
                <mxCell id="172" value="・" style="shape=partialRectangle;html=1;whiteSpace=wrap;connectable=0;overflow=hidden;fillColor=none;top=0;left=0;bottom=0;right=0;pointerEvents=1;fontColor=#000000;" vertex="1" parent="169">
                    <mxGeometry x="137" width="69" height="45" as="geometry">
                        <mxRectangle width="69" height="45" as="alternateBounds"/>
                    </mxGeometry>
                </mxCell>
                <mxCell id="173" style="shape=partialRectangle;collapsible=0;dropTarget=0;pointerEvents=0;fillColor=none;top=0;left=0;bottom=0;right=0;points=[[0,0.5],[1,0.5]];portConstraint=eastwest;fontColor=#000000;" vertex="1" parent="144">
                    <mxGeometry y="315" width="206" height="45" as="geometry"/>
                </mxCell>
                <mxCell id="174" value="15" style="shape=partialRectangle;html=1;whiteSpace=wrap;connectable=0;overflow=hidden;fillColor=none;top=0;left=0;bottom=0;right=0;pointerEvents=1;fontColor=#000000;" vertex="1" parent="173">
                    <mxGeometry width="56" height="45" as="geometry">
                        <mxRectangle width="56" height="45" as="alternateBounds"/>
                    </mxGeometry>
                </mxCell>
                <mxCell id="175" value="R15" style="shape=partialRectangle;html=1;whiteSpace=wrap;connectable=0;overflow=hidden;fillColor=none;top=0;left=0;bottom=0;right=0;pointerEvents=1;fontColor=#000000;" vertex="1" parent="173">
                    <mxGeometry x="56" width="81" height="45" as="geometry">
                        <mxRectangle width="81" height="45" as="alternateBounds"/>
                    </mxGeometry>
                </mxCell>
                <mxCell id="176" value="" style="shape=partialRectangle;html=1;whiteSpace=wrap;connectable=0;overflow=hidden;fillColor=none;top=0;left=0;bottom=0;right=0;pointerEvents=1;fontColor=#000000;" vertex="1" parent="173">
                    <mxGeometry x="137" width="69" height="45" as="geometry">
                        <mxRectangle width="69" height="45" as="alternateBounds"/>
                    </mxGeometry>
                </mxCell>
                <mxCell id="177" style="shape=partialRectangle;collapsible=0;dropTarget=0;pointerEvents=0;fillColor=none;top=0;left=0;bottom=0;right=0;points=[[0,0.5],[1,0.5]];portConstraint=eastwest;fontColor=#000000;" vertex="1" parent="144">
                    <mxGeometry y="360" width="206" height="45" as="geometry"/>
                </mxCell>
                <mxCell id="178" value="16" style="shape=partialRectangle;html=1;whiteSpace=wrap;connectable=0;overflow=hidden;fillColor=none;top=0;left=0;bottom=0;right=0;pointerEvents=1;fontColor=#000000;" vertex="1" parent="177">
                    <mxGeometry width="56" height="45" as="geometry">
                        <mxRectangle width="56" height="45" as="alternateBounds"/>
                    </mxGeometry>
                </mxCell>
                <mxCell id="179" value="" style="shape=partialRectangle;html=1;whiteSpace=wrap;connectable=0;overflow=hidden;fillColor=none;top=0;left=0;bottom=0;right=0;pointerEvents=1;fontColor=#000000;" vertex="1" parent="177">
                    <mxGeometry x="56" width="81" height="45" as="geometry">
                        <mxRectangle width="81" height="45" as="alternateBounds"/>
                    </mxGeometry>
                </mxCell>
                <mxCell id="180" value="" style="shape=partialRectangle;html=1;whiteSpace=wrap;connectable=0;overflow=hidden;fillColor=none;top=0;left=0;bottom=0;right=0;pointerEvents=1;fontColor=#000000;" vertex="1" parent="177">
                    <mxGeometry x="137" width="69" height="45" as="geometry">
                        <mxRectangle width="69" height="45" as="alternateBounds"/>
                    </mxGeometry>
                </mxCell>
                <mxCell id="181" style="shape=partialRectangle;collapsible=0;dropTarget=0;pointerEvents=0;fillColor=none;top=0;left=0;bottom=0;right=0;points=[[0,0.5],[1,0.5]];portConstraint=eastwest;fontColor=#000000;" vertex="1" parent="144">
                    <mxGeometry y="405" width="206" height="45" as="geometry"/>
                </mxCell>
                <mxCell id="182" value="・" style="shape=partialRectangle;html=1;whiteSpace=wrap;connectable=0;overflow=hidden;fillColor=none;top=0;left=0;bottom=0;right=0;pointerEvents=1;fontColor=#000000;" vertex="1" parent="181">
                    <mxGeometry width="56" height="45" as="geometry">
                        <mxRectangle width="56" height="45" as="alternateBounds"/>
                    </mxGeometry>
                </mxCell>
                <mxCell id="183" value="・" style="shape=partialRectangle;html=1;whiteSpace=wrap;connectable=0;overflow=hidden;fillColor=none;top=0;left=0;bottom=0;right=0;pointerEvents=1;fontColor=#000000;" vertex="1" parent="181">
                    <mxGeometry x="56" width="81" height="45" as="geometry">
                        <mxRectangle width="81" height="45" as="alternateBounds"/>
                    </mxGeometry>
                </mxCell>
                <mxCell id="184" value="・" style="shape=partialRectangle;html=1;whiteSpace=wrap;connectable=0;overflow=hidden;fillColor=none;top=0;left=0;bottom=0;right=0;pointerEvents=1;fontColor=#000000;" vertex="1" parent="181">
                    <mxGeometry x="137" width="69" height="45" as="geometry">
                        <mxRectangle width="69" height="45" as="alternateBounds"/>
                    </mxGeometry>
                </mxCell>
                <mxCell id="185" style="shape=partialRectangle;collapsible=0;dropTarget=0;pointerEvents=0;fillColor=none;top=0;left=0;bottom=0;right=0;points=[[0,0.5],[1,0.5]];portConstraint=eastwest;fontColor=#000000;" vertex="1" parent="144">
                    <mxGeometry y="450" width="206" height="45" as="geometry"/>
                </mxCell>
                <mxCell id="186" value="16383" style="shape=partialRectangle;html=1;whiteSpace=wrap;connectable=0;overflow=hidden;fillColor=none;top=0;left=0;bottom=0;right=0;pointerEvents=1;fontColor=#000000;" vertex="1" parent="185">
                    <mxGeometry width="56" height="45" as="geometry">
                        <mxRectangle width="56" height="45" as="alternateBounds"/>
                    </mxGeometry>
                </mxCell>
                <mxCell id="187" style="shape=partialRectangle;html=1;whiteSpace=wrap;connectable=0;overflow=hidden;fillColor=none;top=0;left=0;bottom=0;right=0;pointerEvents=1;fontColor=#000000;" vertex="1" parent="185">
                    <mxGeometry x="56" width="81" height="45" as="geometry">
                        <mxRectangle width="81" height="45" as="alternateBounds"/>
                    </mxGeometry>
                </mxCell>
                <mxCell id="188" style="shape=partialRectangle;html=1;whiteSpace=wrap;connectable=0;overflow=hidden;fillColor=none;top=0;left=0;bottom=0;right=0;pointerEvents=1;fontColor=#000000;" vertex="1" parent="185">
                    <mxGeometry x="137" width="69" height="45" as="geometry">
                        <mxRectangle width="69" height="45" as="alternateBounds"/>
                    </mxGeometry>
                </mxCell>
                <mxCell id="189" style="shape=partialRectangle;collapsible=0;dropTarget=0;pointerEvents=0;fillColor=none;top=0;left=0;bottom=0;right=0;points=[[0,0.5],[1,0.5]];portConstraint=eastwest;fontColor=#000000;" vertex="1" parent="144">
                    <mxGeometry y="495" width="206" height="45" as="geometry"/>
                </mxCell>
                <mxCell id="190" value="16384" style="shape=partialRectangle;html=1;whiteSpace=wrap;connectable=0;overflow=hidden;fillColor=none;top=0;left=0;bottom=0;right=0;pointerEvents=1;fontColor=#000000;" vertex="1" parent="189">
                    <mxGeometry width="56" height="45" as="geometry">
                        <mxRectangle width="56" height="45" as="alternateBounds"/>
                    </mxGeometry>
                </mxCell>
                <mxCell id="191" value="SCREEN" style="shape=partialRectangle;html=1;whiteSpace=wrap;connectable=0;overflow=hidden;fillColor=none;top=0;left=0;bottom=0;right=0;pointerEvents=1;fontColor=#000000;" vertex="1" parent="189">
                    <mxGeometry x="56" width="81" height="45" as="geometry">
                        <mxRectangle width="81" height="45" as="alternateBounds"/>
                    </mxGeometry>
                </mxCell>
                <mxCell id="192" style="shape=partialRectangle;html=1;whiteSpace=wrap;connectable=0;overflow=hidden;fillColor=none;top=0;left=0;bottom=0;right=0;pointerEvents=1;fontColor=#000000;" vertex="1" parent="189">
                    <mxGeometry x="137" width="69" height="45" as="geometry">
                        <mxRectangle width="69" height="45" as="alternateBounds"/>
                    </mxGeometry>
                </mxCell>
                <mxCell id="193" style="shape=partialRectangle;collapsible=0;dropTarget=0;pointerEvents=0;fillColor=none;top=0;left=0;bottom=0;right=0;points=[[0,0.5],[1,0.5]];portConstraint=eastwest;fontColor=#000000;" vertex="1" parent="144">
                    <mxGeometry y="540" width="206" height="45" as="geometry"/>
                </mxCell>
                <mxCell id="194" value="・" style="shape=partialRectangle;html=1;whiteSpace=wrap;connectable=0;overflow=hidden;fillColor=none;top=0;left=0;bottom=0;right=0;pointerEvents=1;fontColor=#000000;" vertex="1" parent="193">
                    <mxGeometry width="56" height="45" as="geometry">
                        <mxRectangle width="56" height="45" as="alternateBounds"/>
                    </mxGeometry>
                </mxCell>
                <mxCell id="195" value="・" style="shape=partialRectangle;html=1;whiteSpace=wrap;connectable=0;overflow=hidden;fillColor=none;top=0;left=0;bottom=0;right=0;pointerEvents=1;fontColor=#000000;" vertex="1" parent="193">
                    <mxGeometry x="56" width="81" height="45" as="geometry">
                        <mxRectangle width="81" height="45" as="alternateBounds"/>
                    </mxGeometry>
                </mxCell>
                <mxCell id="196" value="・" style="shape=partialRectangle;html=1;whiteSpace=wrap;connectable=0;overflow=hidden;fillColor=none;top=0;left=0;bottom=0;right=0;pointerEvents=1;fontColor=#000000;" vertex="1" parent="193">
                    <mxGeometry x="137" width="69" height="45" as="geometry">
                        <mxRectangle width="69" height="45" as="alternateBounds"/>
                    </mxGeometry>
                </mxCell>
                <mxCell id="197" style="shape=partialRectangle;collapsible=0;dropTarget=0;pointerEvents=0;fillColor=none;top=0;left=0;bottom=0;right=0;points=[[0,0.5],[1,0.5]];portConstraint=eastwest;fontColor=#000000;" vertex="1" parent="144">
                    <mxGeometry y="585" width="206" height="45" as="geometry"/>
                </mxCell>
                <mxCell id="198" value="24575" style="shape=partialRectangle;html=1;whiteSpace=wrap;connectable=0;overflow=hidden;fillColor=none;top=0;left=0;bottom=0;right=0;pointerEvents=1;fontColor=#000000;" vertex="1" parent="197">
                    <mxGeometry width="56" height="45" as="geometry">
                        <mxRectangle width="56" height="45" as="alternateBounds"/>
                    </mxGeometry>
                </mxCell>
                <mxCell id="199" style="shape=partialRectangle;html=1;whiteSpace=wrap;connectable=0;overflow=hidden;fillColor=none;top=0;left=0;bottom=0;right=0;pointerEvents=1;fontColor=#000000;" vertex="1" parent="197">
                    <mxGeometry x="56" width="81" height="45" as="geometry">
                        <mxRectangle width="81" height="45" as="alternateBounds"/>
                    </mxGeometry>
                </mxCell>
                <mxCell id="200" style="shape=partialRectangle;html=1;whiteSpace=wrap;connectable=0;overflow=hidden;fillColor=none;top=0;left=0;bottom=0;right=0;pointerEvents=1;fontColor=#000000;" vertex="1" parent="197">
                    <mxGeometry x="137" width="69" height="45" as="geometry">
                        <mxRectangle width="69" height="45" as="alternateBounds"/>
                    </mxGeometry>
                </mxCell>
                <mxCell id="201" style="shape=partialRectangle;collapsible=0;dropTarget=0;pointerEvents=0;fillColor=none;top=0;left=0;bottom=0;right=0;points=[[0,0.5],[1,0.5]];portConstraint=eastwest;fontColor=#000000;" vertex="1" parent="144">
                    <mxGeometry y="630" width="206" height="45" as="geometry"/>
                </mxCell>
                <mxCell id="202" value="24576" style="shape=partialRectangle;html=1;whiteSpace=wrap;connectable=0;overflow=hidden;fillColor=none;top=0;left=0;bottom=0;right=0;pointerEvents=1;fontColor=#000000;" vertex="1" parent="201">
                    <mxGeometry width="56" height="45" as="geometry">
                        <mxRectangle width="56" height="45" as="alternateBounds"/>
                    </mxGeometry>
                </mxCell>
                <mxCell id="203" value="KBD" style="shape=partialRectangle;html=1;whiteSpace=wrap;connectable=0;overflow=hidden;fillColor=none;top=0;left=0;bottom=0;right=0;pointerEvents=1;fontColor=#000000;" vertex="1" parent="201">
                    <mxGeometry x="56" width="81" height="45" as="geometry">
                        <mxRectangle width="81" height="45" as="alternateBounds"/>
                    </mxGeometry>
                </mxCell>
                <mxCell id="204" style="shape=partialRectangle;html=1;whiteSpace=wrap;connectable=0;overflow=hidden;fillColor=none;top=0;left=0;bottom=0;right=0;pointerEvents=1;fontColor=#000000;" vertex="1" parent="201">
                    <mxGeometry x="137" width="69" height="45" as="geometry">
                        <mxRectangle width="69" height="45" as="alternateBounds"/>
                    </mxGeometry>
                </mxCell>
                <mxCell id="205" style="shape=partialRectangle;collapsible=0;dropTarget=0;pointerEvents=0;fillColor=none;top=0;left=0;bottom=0;right=0;points=[[0,0.5],[1,0.5]];portConstraint=eastwest;fontColor=#000000;" vertex="1" parent="144">
                    <mxGeometry y="675" width="206" height="45" as="geometry"/>
                </mxCell>
                <mxCell id="206" value="24577" style="shape=partialRectangle;html=1;whiteSpace=wrap;connectable=0;overflow=hidden;fillColor=none;top=0;left=0;bottom=0;right=0;pointerEvents=1;fontColor=#000000;" vertex="1" parent="205">
                    <mxGeometry width="56" height="45" as="geometry">
                        <mxRectangle width="56" height="45" as="alternateBounds"/>
                    </mxGeometry>
                </mxCell>
                <mxCell id="207" style="shape=partialRectangle;html=1;whiteSpace=wrap;connectable=0;overflow=hidden;fillColor=none;top=0;left=0;bottom=0;right=0;pointerEvents=1;fontColor=#000000;" vertex="1" parent="205">
                    <mxGeometry x="56" width="81" height="45" as="geometry">
                        <mxRectangle width="81" height="45" as="alternateBounds"/>
                    </mxGeometry>
                </mxCell>
                <mxCell id="208" style="shape=partialRectangle;html=1;whiteSpace=wrap;connectable=0;overflow=hidden;fillColor=none;top=0;left=0;bottom=0;right=0;pointerEvents=1;fontColor=#000000;" vertex="1" parent="205">
                    <mxGeometry x="137" width="69" height="45" as="geometry">
                        <mxRectangle width="69" height="45" as="alternateBounds"/>
                    </mxGeometry>
                </mxCell>
                <mxCell id="209" style="shape=partialRectangle;collapsible=0;dropTarget=0;pointerEvents=0;fillColor=none;top=0;left=0;bottom=0;right=0;points=[[0,0.5],[1,0.5]];portConstraint=eastwest;fontColor=#000000;" vertex="1" parent="144">
                    <mxGeometry y="720" width="206" height="45" as="geometry"/>
                </mxCell>
                <mxCell id="210" value="・" style="shape=partialRectangle;html=1;whiteSpace=wrap;connectable=0;overflow=hidden;fillColor=none;top=0;left=0;bottom=0;right=0;pointerEvents=1;fontColor=#000000;" vertex="1" parent="209">
                    <mxGeometry width="56" height="45" as="geometry">
                        <mxRectangle width="56" height="45" as="alternateBounds"/>
                    </mxGeometry>
                </mxCell>
                <mxCell id="211" value="・" style="shape=partialRectangle;html=1;whiteSpace=wrap;connectable=0;overflow=hidden;fillColor=none;top=0;left=0;bottom=0;right=0;pointerEvents=1;fontColor=#000000;" vertex="1" parent="209">
                    <mxGeometry x="56" width="81" height="45" as="geometry">
                        <mxRectangle width="81" height="45" as="alternateBounds"/>
                    </mxGeometry>
                </mxCell>
                <mxCell id="212" value="・" style="shape=partialRectangle;html=1;whiteSpace=wrap;connectable=0;overflow=hidden;fillColor=none;top=0;left=0;bottom=0;right=0;pointerEvents=1;fontColor=#000000;" vertex="1" parent="209">
                    <mxGeometry x="137" width="69" height="45" as="geometry">
                        <mxRectangle width="69" height="45" as="alternateBounds"/>
                    </mxGeometry>
                </mxCell>
                <mxCell id="242" style="shape=partialRectangle;collapsible=0;dropTarget=0;pointerEvents=0;fillColor=none;top=0;left=0;bottom=0;right=0;points=[[0,0.5],[1,0.5]];portConstraint=eastwest;fontColor=#000000;" vertex="1" parent="144">
                    <mxGeometry y="765" width="206" height="45" as="geometry"/>
                </mxCell>
                <mxCell id="243" value="32768" style="shape=partialRectangle;html=1;whiteSpace=wrap;connectable=0;overflow=hidden;fillColor=none;top=0;left=0;bottom=0;right=0;pointerEvents=1;fontColor=#000000;" vertex="1" parent="242">
                    <mxGeometry width="56" height="45" as="geometry">
                        <mxRectangle width="56" height="45" as="alternateBounds"/>
                    </mxGeometry>
                </mxCell>
                <mxCell id="244" style="shape=partialRectangle;html=1;whiteSpace=wrap;connectable=0;overflow=hidden;fillColor=none;top=0;left=0;bottom=0;right=0;pointerEvents=1;fontColor=#000000;" vertex="1" parent="242">
                    <mxGeometry x="56" width="81" height="45" as="geometry">
                        <mxRectangle width="81" height="45" as="alternateBounds"/>
                    </mxGeometry>
                </mxCell>
                <mxCell id="245" style="shape=partialRectangle;html=1;whiteSpace=wrap;connectable=0;overflow=hidden;fillColor=none;top=0;left=0;bottom=0;right=0;pointerEvents=1;fontColor=#000000;" vertex="1" parent="242">
                    <mxGeometry x="137" width="69" height="45" as="geometry">
                        <mxRectangle width="69" height="45" as="alternateBounds"/>
                    </mxGeometry>
                </mxCell>
                <mxCell id="233" style="edgeStyle=none;rounded=0;html=1;entryX=1;entryY=0.5;entryDx=0;entryDy=0;fontColor=#000000;startArrow=openAsync;startFill=0;strokeColor=#000000;" edge="1" parent="1" source="219" target="149">
                    <mxGeometry relative="1" as="geometry"/>
                </mxCell>
                <mxCell id="234" style="edgeStyle=none;rounded=0;html=1;entryX=1.003;entryY=0.664;entryDx=0;entryDy=0;entryPerimeter=0;fontColor=#000000;startArrow=openAsync;startFill=0;strokeColor=#000000;" edge="1" parent="1" source="219" target="173">
                    <mxGeometry relative="1" as="geometry"/>
                </mxCell>
                <mxCell id="219" value="&lt;font color=&quot;#000000&quot;&gt;定義済みシンボル&lt;/font&gt;" style="rounded=1;whiteSpace=wrap;html=1;strokeColor=#10739e;fillColor=#b1ddf0;opacity=70;" vertex="1" parent="1">
                    <mxGeometry x="510" y="230" width="120" height="60" as="geometry"/>
                </mxCell>
                <mxCell id="235" style="edgeStyle=none;rounded=0;html=1;entryX=1;entryY=0.5;entryDx=0;entryDy=0;fontColor=#000000;startArrow=openAsync;startFill=0;strokeColor=#000000;" edge="1" parent="1" source="227" target="177">
                    <mxGeometry relative="1" as="geometry"/>
                </mxCell>
                <mxCell id="236" style="edgeStyle=none;rounded=0;html=1;entryX=1;entryY=0.5;entryDx=0;entryDy=0;fontColor=#000000;startArrow=openAsync;startFill=0;strokeColor=#000000;" edge="1" parent="1" source="227" target="185">
                    <mxGeometry relative="1" as="geometry"/>
                </mxCell>
                <mxCell id="227" value="&lt;font color=&quot;#000000&quot;&gt;ラベルシンボル&lt;br&gt;(ユーザーが定義)&lt;br&gt;(16K)&lt;br&gt;&lt;/font&gt;" style="rounded=1;whiteSpace=wrap;html=1;strokeColor=#56517e;fillColor=#d0cee2;opacity=70;" vertex="1" parent="1">
                    <mxGeometry x="510" y="455" width="120" height="60" as="geometry"/>
                </mxCell>
                <mxCell id="238" style="edgeStyle=none;rounded=0;html=1;entryX=0.999;entryY=0.401;entryDx=0;entryDy=0;entryPerimeter=0;fontColor=#000000;startArrow=openAsync;startFill=0;strokeColor=#000000;" edge="1" parent="1" source="237" target="189">
                    <mxGeometry relative="1" as="geometry"/>
                </mxCell>
                <mxCell id="239" style="edgeStyle=none;rounded=0;html=1;entryX=1;entryY=0.5;entryDx=0;entryDy=0;fontColor=#000000;startArrow=openAsync;startFill=0;strokeColor=#000000;" edge="1" parent="1" source="237" target="197">
                    <mxGeometry relative="1" as="geometry"/>
                </mxCell>
                <mxCell id="237" value="&lt;font color=&quot;#000000&quot;&gt;スクリーン割り当て&lt;br&gt;&lt;/font&gt;" style="rounded=1;whiteSpace=wrap;html=1;strokeColor=#ae4132;fillColor=#fad9d5;opacity=70;" vertex="1" parent="1">
                    <mxGeometry x="510" y="585" width="120" height="60" as="geometry"/>
                </mxCell>
                <mxCell id="241" style="edgeStyle=none;rounded=0;html=1;fontColor=#000000;startArrow=openAsync;startFill=0;strokeColor=#000000;" edge="1" parent="1" source="240" target="201">
                    <mxGeometry relative="1" as="geometry"/>
                </mxCell>
                <mxCell id="240" value="&lt;font color=&quot;#000000&quot;&gt;キーボード割り当て&lt;br&gt;&lt;/font&gt;" style="rounded=1;whiteSpace=wrap;html=1;strokeColor=#0e8088;fillColor=#b0e3e6;opacity=70;" vertex="1" parent="1">
                    <mxGeometry x="510" y="672.5" width="120" height="60" as="geometry"/>
                </mxCell>
                <mxCell id="247" style="edgeStyle=none;rounded=0;html=1;entryX=1;entryY=0.5;entryDx=0;entryDy=0;fontColor=#000000;startArrow=openAsync;startFill=0;strokeColor=#000000;" edge="1" parent="1" source="246" target="205">
                    <mxGeometry relative="1" as="geometry"/>
                </mxCell>
                <mxCell id="248" style="edgeStyle=none;rounded=0;html=1;entryX=1;entryY=0.5;entryDx=0;entryDy=0;fontColor=#000000;startArrow=openAsync;startFill=0;strokeColor=#000000;" edge="1" parent="1" source="246" target="242">
                    <mxGeometry relative="1" as="geometry"/>
                </mxCell>
                <mxCell id="246" value="&lt;font color=&quot;#000000&quot;&gt;?&lt;br&gt;&lt;/font&gt;" style="rounded=1;whiteSpace=wrap;html=1;strokeColor=#d6b656;fillColor=#fff2cc;opacity=70;gradientColor=#ffd966;" vertex="1" parent="1">
                    <mxGeometry x="510" y="770" width="120" height="60" as="geometry"/>
                </mxCell>
                <mxCell id="249" value="RAM" style="text;html=1;align=center;verticalAlign=middle;resizable=0;points=[];autosize=1;strokeColor=none;fillColor=none;fontColor=#000000;" vertex="1" parent="1">
                    <mxGeometry x="330" y="20" width="40" height="20" as="geometry"/>
                </mxCell>
            </root>
        </mxGraphModel>
    </diagram>
</mxfile>